<svg xmlns="http://www.w3.org/2000/svg" style="display:none">
  <symbol id="kc-i-leaf" viewBox="0 0 24 24"><path d="M19 5c0 9-5 14-13 14 0-8 5-14 13-14z" stroke="currentColor" stroke-width="1.5" fill="none"/><path d="M6 19L15 10" stroke="currentColor" stroke-width="1.5" fill="none"/></symbol>
  <symbol id="kc-i-box" viewBox="0 0 24 24"><path d="M4 8l8-4 8 4v10l-8 4-8-4V8z" stroke="currentColor" stroke-width="1.5" fill="none"/><path d="M4 8l8 4 8-4M12 12v10" stroke="currentColor" stroke-width="1.5" fill="none"/></symbol>
  <symbol id="kc-i-truck" viewBox="0 0 24 24"><path d="M3 6h13v11H3zM16 10h5l2 3v4h-7" stroke="currentColor" stroke-width="1.5" fill="none"/><circle cx="7" cy="18.5" r="1.8" stroke="currentColor" stroke-width="1.5" fill="none"/><circle cx="18" cy="18.5" r="1.8" stroke="currentColor" stroke-width="1.5" fill="none"/></symbol>
  <symbol id="kc-i-shield" viewBox="0 0 24 24"><path d="M12 3l8 3v7c0 5-3 8-8 9-5-1-8-4-8-9V6l8-3z" stroke="currentColor" stroke-width="1.5" fill="none"/></symbol>
  <symbol id="kc-i-scissors" viewBox="0 0 24 24"><circle cx="6" cy="6" r="3" stroke="currentColor" stroke-width="1.5" fill="none"/><circle cx="6" cy="18" r="3" stroke="currentColor" stroke-width="1.5" fill="none"/><path d="M8.5 8.5L21 21M8.5 15.5L21 3" stroke="currentColor" stroke-width="1.5"/></symbol>
  <symbol id="kc-i-pencil" viewBox="0 0 24 24"><path d="M4 20l4-1 11-11-3-3L5 16l-1 4z" stroke="currentColor" stroke-width="1.5" fill="none"/></symbol>
  <symbol id="kc-i-star" viewBox="0 0 24 24"><path d="M12 2l3 7h7l-6 4 2 8-6-5-6 5 2-8-6-4h7z" fill="currentColor"/></symbol>
  <symbol id="kc-i-heart" viewBox="0 0 24 24"><path d="M12 21s-8-5-8-12a5 5 0 0 1 8-4 5 5 0 0 1 8 4c0 7-8 12-8 12z" stroke="currentColor" stroke-width="1.5" fill="none"/></symbol>
  <symbol id="kc-i-arrow-right" viewBox="0 0 24 24"><path d="M5 12h14M13 5l7 7-7 7" stroke="currentColor" stroke-width="1.5" fill="none" stroke-linecap="round" stroke-linejoin="round"/></symbol>
</svg>
